<?xml version="1.0" encoding="utf-8"?>
<!-- Generator: Adobe Illustrator 26.0.2, SVG Export Plug-In . SVG Version: 6.00 Build 0)  -->
<svg version="1.1" id="Layer_1" xmlns="http://www.w3.org/2000/svg" xmlns:xlink="http://www.w3.org/1999/xlink" x="0px" y="0px"
	 viewBox="0 0 40 40" style="enable-background:new 0 0 40 40;" xml:space="preserve">
<style type="text/css">
	.st0{fill:#0CBBD2;}
	.st1{display:none;fill:#FFFFFF;}
	.st2{fill:#005282;}
	.st3{fill:#04BAD2;}
</style>
<g>
	<path class="st0" d="M17.9,0H3.5C1.6,0,0,1.6,0,3.5v33C0,38.4,1.6,40,3.5,40h14.4c1.9,0,3.5-1.6,3.5-3.5v-33
		C21.4,1.6,19.8,0,17.9,0z M18.6,31.3c0,0.8-0.7,1.5-1.5,1.5H4.8c-0.8,0-1.5-0.7-1.5-1.5V5.5C3.3,4.7,4,4,4.8,4h12.3
		c0.8,0,1.5,0.7,1.5,1.5V31.3z"/>
	<path class="st1" d="M17.1,4H4.8C4,4,3.3,4.7,3.3,5.5v25.8c0,0.8,0.7,1.5,1.5,1.5h12.3c0.8,0,1.5-0.7,1.5-1.5V5.5
		C18.6,4.7,17.9,4,17.1,4z"/>
</g>
<path class="st2" d="M13.3,37.8H8.5c-0.9,0-1.6-0.7-1.6-1.6v-0.1c0-0.9,0.7-1.6,1.6-1.6h4.8c0.9,0,1.6,0.7,1.6,1.6v0.1
	C14.9,37,14.2,37.8,13.3,37.8z"/>
<path class="st2" d="M13.9,3.4h-6c-0.3,0-0.5-0.2-0.5-0.5l0,0c0-0.3,0.2-0.5,0.5-0.5H14c0.3,0,0.5,0.2,0.5,0.5l0,0
	C14.4,3.2,14.2,3.4,13.9,3.4z"/>
<ellipse class="st2" cx="15.4" cy="2.9" rx="0.5" ry="0.5"/>
<rect x="5.8" y="8.8" class="st2" width="10.1" height="3.2"/>
<rect x="9.8" y="13.9" class="st2" width="6.1" height="3.2"/>
<rect x="5.8" y="13.9" class="st2" width="3.1" height="3.2"/>
<rect x="9.8" y="17.9" class="st2" width="6.1" height="3.2"/>
<rect x="5.8" y="17.9" class="st2" width="3.1" height="3.2"/>
<rect x="9.8" y="21.9" class="st2" width="6.1" height="3.2"/>
<rect x="5.8" y="21.9" class="st2" width="3.1" height="3.2"/>
<g>
	<g id="layer1">
		<path id="path1712" class="st3" d="M36.3,10.9c-0.1,0-0.1,0-0.2,0c0,0,0,0,0,0.1l0,0c0,0,0,0,0,0.1s0,0.1,0,0.1s0,0,0,0.1v0.8v0.1
			c0,0,0,0-0.1,0.1c-0.2,0.2-0.2,0.4-0.3,0.6v2.3c0,0.1,0,0.2,0.1,0.2h1c0,0,0.1-0.1,0.1-0.2v-2.3c0-0.2-0.1-0.4-0.3-0.6
			c0-0.1-0.1-0.1-0.1-0.1s0,0,0-0.1v-0.8v-0.1c0,0,0,0,0-0.1V11l0,0c0,0,0,0,0-0.1C36.4,10.9,36.3,10.9,36.3,10.9L36.3,10.9z"/>
	</g>
	<g id="layer1_00000067212156931658904180000005115847187739977610_">
		<path id="path1712_00000170983911774325816960000015362635799989153193_" class="st3" d="M34.4,10.9c-0.1,0-0.1,0-0.2,0
			c0,0,0,0,0,0.1l0,0c0,0,0,0,0,0.1s0,0.1,0,0.1s0,0,0,0.1v0.8v0.1c0,0,0,0-0.1,0.1c-0.2,0.2-0.2,0.4-0.3,0.6v2.3
			c0,0.1,0,0.2,0.1,0.2h1c0,0,0.1-0.1,0.1-0.2v-2.3c0-0.2-0.1-0.4-0.3-0.6c0-0.1-0.1-0.1-0.1-0.1s0,0,0-0.1v-0.8v-0.1c0,0,0,0,0-0.1
			V11l0,0c0,0,0,0,0-0.1C34.5,10.9,34.4,10.9,34.4,10.9L34.4,10.9z"/>
	</g>
	<g id="layer1_00000064349669555914634770000009238618487127323287_">
		<path id="path1712_00000164477905874039423770000016776499660018717866_" class="st3" d="M31.4,10.9c-0.1,0-0.1,0-0.2,0
			c0,0,0,0,0,0.1l0,0c0,0,0,0,0,0.1s0,0.1,0,0.1s0,0,0,0.1v0.8v0.1c0,0,0,0-0.1,0.1c-0.2,0.2-0.2,0.4-0.3,0.6v2.3
			c0,0.1,0,0.2,0.1,0.2h1c0,0,0.1-0.1,0.1-0.2v-2.3c0-0.2-0.1-0.4-0.3-0.6c0-0.1-0.1-0.1-0.1-0.1s0,0,0-0.1v-0.8v-0.1c0,0,0,0,0-0.1
			V11l0,0c0,0,0,0,0-0.1C31.5,10.9,31.5,10.9,31.4,10.9L31.4,10.9z"/>
	</g>
	<g id="layer1_00000023965821788547479790000005052395324386631087_">
		<path id="path1712_00000088834041735148507060000014759043773362909085_" class="st3" d="M29.5,10.9c-0.1,0-0.1,0-0.2,0
			c0,0,0,0,0,0.1l0,0c0,0,0,0,0,0.1s0,0.1,0,0.1s0,0,0,0.1v0.8v0.1c0,0,0,0-0.1,0.1c-0.2,0.2-0.2,0.4-0.3,0.6v2.3
			c0,0.1,0,0.2,0.1,0.2h1c0,0,0.1-0.1,0.1-0.2v-2.3c0-0.2-0.1-0.4-0.3-0.6c0-0.1-0.1-0.1-0.1-0.1s0,0,0-0.1v-0.8v-0.1c0,0,0,0,0-0.1
			V11l0,0c0,0,0,0,0-0.1C29.7,10.9,29.6,10.9,29.5,10.9L29.5,10.9z"/>
	</g>
</g>
<g>
	<g id="layer1_00000087381796326628556110000013237132260377403025_">
		<path id="path1712_00000180364508617916935110000005865517498318966689_" class="st3" d="M37.6,17.9c-0.1,0-0.1,0-0.2,0
			c0,0,0,0,0,0.1l0,0c0,0,0,0,0,0.1s0,0.1,0,0.1s0,0,0,0.1v0.8v0.1c0,0,0,0-0.1,0.1c-0.2,0.2-0.2,0.4-0.3,0.6v2.3
			c0,0.1,0,0.2,0.1,0.2h1c0,0,0.1-0.1,0.1-0.2v-2.3c0-0.2-0.1-0.4-0.3-0.6c0-0.1-0.1-0.1-0.1-0.1s0,0,0-0.1v-0.8v-0.1c0,0,0,0,0-0.1
			V18l0,0c0,0,0,0,0-0.1C37.7,17.9,37.7,17.9,37.6,17.9L37.6,17.9z"/>
	</g>
	<g id="layer1_00000030472377735396839810000001520459247439243158_">
		<path id="path1712_00000116215266878259551900000013716286752051455662_" class="st3" d="M35.7,17.9c-0.1,0-0.1,0-0.2,0
			c0,0,0,0,0,0.1l0,0c0,0,0,0,0,0.1s0,0.1,0,0.1s0,0,0,0.1v0.8v0.1c0,0,0,0-0.1,0.1c-0.2,0.2-0.2,0.4-0.3,0.6v2.3
			c0,0.1,0,0.2,0.1,0.2h1c0,0,0.1-0.1,0.1-0.2v-2.3c0-0.2-0.1-0.4-0.3-0.6c0-0.1-0.1-0.1-0.1-0.1s0,0,0-0.1v-0.8v-0.1c0,0,0,0,0-0.1
			V18l0,0c0,0,0,0,0-0.1C35.9,17.9,35.8,17.9,35.7,17.9L35.7,17.9z"/>
	</g>
	<g id="layer1_00000147931246989886245900000009431793373017048763_">
		<path id="path1712_00000154417312670089739120000011086978605165998511_" class="st3" d="M29.3,17.9c-0.1,0-0.1,0-0.2,0
			c0,0,0,0,0,0.1l0,0c0,0,0,0,0,0.1s0,0.1,0,0.1s0,0,0,0.1v0.8v0.1c0,0,0,0-0.1,0.1c-0.2,0.2-0.2,0.4-0.3,0.6v2.3
			c0,0.1,0,0.2,0.1,0.2h1c0,0,0.1-0.1,0.1-0.2v-2.3c0-0.2-0.1-0.4-0.3-0.6c0-0.1-0.1-0.1-0.1-0.1s0,0,0-0.1v-0.8v-0.1c0,0,0,0,0-0.1
			V18l0,0c0,0,0,0,0-0.1C29.4,17.9,29.4,17.9,29.3,17.9L29.3,17.9z"/>
	</g>
	<g id="layer1_00000067219009479943974370000010294170402370764440_">
		<path id="path1712_00000127737741745179050270000007119672247566299563_" class="st3" d="M27.4,17.9c-0.1,0-0.1,0-0.2,0
			c0,0,0,0,0,0.1l0,0c0,0,0,0,0,0.1s0,0.1,0,0.1s0,0,0,0.1v0.8v0.1c0,0,0,0-0.1,0.1c-0.2,0.2-0.2,0.4-0.3,0.6v2.3
			c0,0.1,0,0.2,0.1,0.2h1c0,0,0.1-0.1,0.1-0.2v-2.3c0-0.2-0.1-0.4-0.3-0.6c0-0.1-0.1-0.1-0.1-0.1s0,0,0-0.1v-0.8v-0.1c0,0,0,0,0-0.1
			V18l0,0c0,0,0,0,0-0.1C27.6,17.9,27.5,17.9,27.4,17.9L27.4,17.9z"/>
	</g>
</g>
<g>
	<g id="layer1_00000136377740743366506410000004284560748665900680_">
		<path id="path1712_00000027598682494348759190000000263769697889568154_" class="st3" d="M39.2,24.8c-0.1,0-0.1,0-0.2,0
			c0,0,0,0,0,0.1l0,0c0,0,0,0,0,0.1s0,0.1,0,0.1s0,0,0,0.1V26v0.1c0,0,0,0-0.1,0.1c-0.2,0.2-0.2,0.4-0.3,0.6v2.3
			c0,0.1,0,0.2,0.1,0.2h1c0,0,0.1-0.1,0.1-0.2v-2.3c0-0.2-0.1-0.4-0.3-0.6c0-0.1-0.1-0.1-0.1-0.1s0,0,0-0.1v-0.8v-0.1c0,0,0,0,0-0.1
			v-0.1l0,0c0,0,0,0,0-0.1C39.3,24.8,39.3,24.8,39.2,24.8L39.2,24.8z"/>
	</g>
	<g id="layer1_00000151533329613462557510000004132970107739411638_">
		<path id="path1712_00000169536729874899878130000003663898466051230639_" class="st3" d="M37.3,24.8c-0.1,0-0.1,0-0.2,0
			c0,0,0,0,0,0.1l0,0c0,0,0,0,0,0.1s0,0.1,0,0.1s0,0,0,0.1V26v0.1c0,0,0,0-0.1,0.1c-0.2,0.2-0.2,0.4-0.3,0.6v2.3
			c0,0.1,0,0.2,0.1,0.2h1c0,0,0.1-0.1,0.1-0.2v-2.3c0-0.2-0.1-0.4-0.3-0.6c0-0.1-0.1-0.1-0.1-0.1s0,0,0-0.1v-0.8v-0.1c0,0,0,0,0-0.1
			v-0.1l0,0c0,0,0,0,0-0.1C37.4,24.8,37.4,24.8,37.3,24.8L37.3,24.8z"/>
	</g>
	<g id="layer1_00000160188675161047011460000011722176743443272363_">
		<path id="path1712_00000093873899810170223560000011170101729713089204_" class="st3" d="M35,24.8c-0.1,0-0.1,0-0.2,0
			c0,0,0,0,0,0.1l0,0c0,0,0,0,0,0.1s0,0.1,0,0.1s0,0,0,0.1V26v0.1c0,0,0,0-0.1,0.1c-0.2,0.2-0.2,0.4-0.3,0.6v2.3
			c0,0.1,0,0.2,0.1,0.2h1c0,0,0.1-0.1,0.1-0.2v-2.3c0-0.2-0.1-0.4-0.3-0.6c0-0.1-0.1-0.1-0.1-0.1s0,0,0-0.1v-0.8v-0.1c0,0,0,0,0-0.1
			v-0.1l0,0c0,0,0,0,0-0.1C35.1,24.8,35,24.8,35,24.8L35,24.8z"/>
	</g>
	<g id="layer1_00000116235498189572711470000002286924593085813125_">
		<path id="path1712_00000165928232983199043720000004768277740078318010_" class="st3" d="M33.1,24.8c-0.1,0-0.1,0-0.2,0
			c0,0,0,0,0,0.1l0,0c0,0,0,0,0,0.1s0,0.1,0,0.1s0,0,0,0.1V26v0.1c0,0,0,0-0.1,0.1c-0.2,0.2-0.2,0.4-0.3,0.6v2.3
			c0,0.1,0,0.2,0.1,0.2h1c0,0,0.1-0.1,0.1-0.2v-2.3c0-0.2-0.1-0.4-0.3-0.6c0-0.1-0.1-0.1-0.1-0.1s0,0,0-0.1v-0.8v-0.1c0,0,0,0,0-0.1
			v-0.1l0,0c0,0,0,0,0-0.1C33.2,24.8,33.2,24.8,33.1,24.8L33.1,24.8z"/>
	</g>
</g>
<rect x="24.9" y="29.2" class="st2" width="15.1" height="2.2"/>
<rect x="24.9" y="22.3" class="st2" width="15.1" height="2.2"/>
<rect x="24.9" y="15.3" class="st2" width="15.1" height="2.2"/>
</svg>
