<?xml version="1.0" encoding="utf-8"?>
<!-- Generator: Adobe Illustrator 26.0.2, SVG Export Plug-In . SVG Version: 6.00 Build 0)  -->
<svg version="1.1" id="Layer_1" xmlns="http://www.w3.org/2000/svg" xmlns:xlink="http://www.w3.org/1999/xlink" x="0px" y="0px"
	 viewBox="0 0 40 40" style="enable-background:new 0 0 40 40;" xml:space="preserve">
<style type="text/css">
	.st0{display:none;fill:#0CBBD2;}
	.st1{fill:#0CBBD2;}
	.st2{fill:#005282;}
	.st3{display:none;}
	.st4{display:inline;}
	.st5{fill-rule:evenodd;clip-rule:evenodd;fill:#EE3824;}
	.st6{font-family:'Montserrat-Bold';}
	.st7{font-size:6.2481px;}
</style>
<rect x="6.9" y="10.9" class="st0" width="18" height="11.6"/>
<g transform="translate(0 -552.36)">
	<g>
		<path class="st1" d="M24.7,563.7h-3.4c0.1,0.3,0.1,0.6-0.1,0.9h3.2v10.9H7.2v-10.9h12.5c-0.1-0.3-0.2-0.6-0.1-0.9H7
			c-0.4,0-0.7,0.3-0.7,0.7v11.3c0,0.4,0.3,0.7,0.7,0.7h6.7v2.1H13c-0.1,0-0.3,0.1-0.3,0.3c0,0.1,0.1,0.3,0.3,0.3h5.8
			c0.1,0,0.3-0.1,0.3-0.3c0-0.1-0.1-0.3-0.3-0.3h-0.8v-2.1h6.7c0.4,0,0.7-0.3,0.7-0.7v-11.3C25.4,564,25.1,563.7,24.7,563.7z"/>
	</g>
</g>
<path class="st2" d="M32,16.2c0-2.1-1.7-3.8-3.8-3.8s-3.8,1.7-3.8,3.8c0,2.1,1.7,3.8,3.8,3.8S32,18.3,32,16.2z"/>
<path class="st2" d="M21.8,26.7h12.7c0-3.5-2.9-6.4-6.4-6.4S21.8,23.2,21.8,26.7z"/>
<g>
	<g>
		<g>
			<path class="st2" d="M20,0C9,0,0,9,0,20c0,11,9,20,20,20c11,0,20-9,20-20C40,9,31,0,20,0z M20,38.3C9.9,38.3,1.7,30.1,1.7,20
				C1.7,9.9,9.9,1.7,20,1.7c10.1,0,18.3,8.2,18.3,18.3C38.3,30.1,30.1,38.3,20,38.3z"/>
		</g>
	</g>
</g>
<g class="st3">
	<g class="st4">
		<g>
			<path class="st2" d="M15,28.4h-1.7v4.2H15c1.3,0,2.2-0.9,2.2-2.1C17.2,29.3,16.2,28.4,15,28.4z M15,32h-1V29h1
				c0.8,0,1.5,0.6,1.5,1.5C16.4,31.4,15.8,32,15,32z"/>
			<polygon class="st2" points="20.5,31.2 19.1,28.4 18.3,28.4 18.3,32.6 18.9,32.6 18.9,29.5 20.3,32.2 20.7,32.2 22,29.5 
				22.1,32.6 22.7,32.6 22.7,28.4 21.9,28.4 			"/>
			<path class="st2" d="M24.8,29.5c0-0.3,0.3-0.4,0.7-0.4c0.3,0,0.8,0.1,1.2,0.4l0.3-0.6c-0.4-0.3-0.9-0.4-1.5-0.4
				c-0.9,0-1.5,0.4-1.5,1.2c0,1.5,2.3,1,2.3,1.9c0,0.3-0.3,0.5-0.8,0.5c-0.4,0-1-0.2-1.4-0.6L23.8,32c0.4,0.4,1.1,0.7,1.7,0.7
				c0.9,0,1.6-0.5,1.6-1.2C27.1,29.9,24.8,30.4,24.8,29.5z"/>
		</g>
	</g>
</g>
<g>
	<g>
		<g>
			<path class="st1" d="M15.2,18.9h-0.7c0,0-0.1,0-0.1-0.1V18c0,0,0,0,0,0H13v3.2h2.2L15.2,18.9C15.2,18.8,15.2,18.9,15.2,18.9z
				 M14.8,20.6h-1.3c0,0,0,0,0,0s0,0,0,0L14.8,20.6C14.8,20.5,14.8,20.5,14.8,20.6C14.8,20.5,14.8,20.6,14.8,20.6z M14.8,20.1h-1.3
				c0,0,0,0,0,0s0,0,0,0L14.8,20.1C14.8,20,14.8,20,14.8,20.1C14.8,20.1,14.8,20.1,14.8,20.1z M14.8,19.7h-1.3c0,0,0,0,0,0s0,0,0,0
				L14.8,19.7C14.8,19.6,14.8,19.6,14.8,19.7C14.8,19.6,14.8,19.7,14.8,19.7z"/>
			<polygon class="st1" points="14.5,18.1 14.5,18.8 15.2,18.8 			"/>
		</g>
	</g>
</g>
<g>
	<g>
		<g>
			<path class="st2" d="M22.4,15.9h-1.7c-0.1,0-0.2-0.1-0.2-0.2v-1.8c0,0,0,0,0,0h-3.2v7.4h5.1L22.4,15.9
				C22.4,15.9,22.4,15.9,22.4,15.9z M21.3,19.8h-2.9c-0.1,0-0.1-0.1-0.1-0.1s0.1-0.1,0.1-0.1h2.9c0.1,0,0.1,0.1,0.1,0.1
				S21.4,19.8,21.3,19.8z M21.3,18.8h-2.9c-0.1,0-0.1-0.1-0.1-0.1s0.1-0.1,0.1-0.1h2.9c0.1,0,0.1,0.1,0.1,0.1S21.4,18.8,21.3,18.8z
				 M21.3,17.7h-2.9c-0.1,0-0.1-0.1-0.1-0.1s0.1-0.1,0.1-0.1h2.9c0.1,0,0.1,0.1,0.1,0.1S21.4,17.7,21.3,17.7z"/>
			<polygon class="st2" points="20.8,14.1 20.8,15.6 22.3,15.6 			"/>
		</g>
	</g>
</g>
<path id="Setting" class="st5" d="M25.5,6.9c-0.3-0.1-0.6-0.1-1,0l0,0.7c-0.2,0.1-0.5,0.2-0.7,0.3l-0.5-0.4
	c-0.3,0.2-0.5,0.4-0.7,0.7l0.4,0.5c-0.1,0.2-0.2,0.5-0.3,0.7l-0.7,0c-0.1,0.3-0.1,0.6,0,1l0.7,0c0.1,0.2,0.2,0.5,0.3,0.7l-0.4,0.5
	c0.2,0.3,0.4,0.5,0.7,0.7l0.5-0.4c0.2,0.1,0.5,0.2,0.7,0.3l0,0.7c0.3,0.1,0.6,0.1,1,0l0-0.7c0.2-0.1,0.5-0.2,0.7-0.3l0.5,0.4
	c0.3-0.2,0.5-0.4,0.7-0.7L27,11c0.1-0.2,0.2-0.5,0.3-0.7l0.7,0c0.1-0.3,0.1-0.6,0-1l-0.7,0c-0.1-0.2-0.2-0.5-0.3-0.7l0.4-0.5
	c-0.2-0.3-0.4-0.5-0.7-0.7l-0.5,0.4c-0.2-0.1-0.5-0.2-0.7-0.3L25.5,6.9z M25,8.4c0.8,0,1.4,0.6,1.4,1.4c0,0.8-0.6,1.4-1.4,1.4
	s-1.4-0.6-1.4-1.4C23.7,9.1,24.3,8.4,25,8.4z"/>
<path id="Setting_00000038377856304223398990000010936157176114670255_" class="st5" d="M20.8,10.2c-0.2,0-0.3,0-0.5,0l0,0.3
	c-0.1,0-0.3,0.1-0.4,0.2l-0.3-0.2c-0.1,0.1-0.3,0.2-0.4,0.4l0.2,0.3c-0.1,0.1-0.1,0.2-0.2,0.4l-0.3,0c0,0.2,0,0.3,0,0.5l0.3,0
	c0,0.1,0.1,0.3,0.2,0.4l-0.2,0.3c0.1,0.1,0.2,0.3,0.4,0.4l0.3-0.2c0.1,0.1,0.2,0.1,0.4,0.2l0,0.3c0.2,0,0.3,0,0.5,0l0-0.3
	c0.1,0,0.3-0.1,0.4-0.2l0.3,0.2c0.1-0.1,0.3-0.2,0.4-0.4l-0.2-0.3c0.1-0.1,0.1-0.2,0.2-0.4l0.3,0c0-0.2,0-0.3,0-0.5l-0.3,0
	c0-0.1-0.1-0.3-0.2-0.4l0.2-0.3c-0.1-0.1-0.2-0.3-0.4-0.4l-0.3,0.2c-0.1-0.1-0.2-0.1-0.4-0.2L20.8,10.2z M20.5,11
	c0.4,0,0.7,0.3,0.7,0.7c0,0.4-0.3,0.7-0.7,0.7c-0.4,0-0.7-0.3-0.7-0.7C19.8,11.3,20.1,11,20.5,11z"/>
<g>
	<g>
		<g>
			<path class="st1" d="M11.4,18.9h-0.7c0,0-0.1,0-0.1-0.1v-0.8c0,0,0,0,0,0H9.2v3.2h2.2L11.4,18.9C11.4,18.9,11.4,18.9,11.4,18.9z
				 M10.9,20.6H9.7c0,0,0,0,0,0s0,0,0,0L10.9,20.6C11,20.5,11,20.5,10.9,20.6C11,20.6,11,20.6,10.9,20.6z M10.9,20.1H9.7
				c0,0,0,0,0,0s0,0,0,0L10.9,20.1C11,20,11,20.1,10.9,20.1C11,20.1,11,20.1,10.9,20.1z M10.9,19.7H9.7c0,0,0,0,0,0s0,0,0,0
				L10.9,19.7C11,19.6,11,19.6,10.9,19.7C11,19.7,11,19.7,10.9,19.7z"/>
			<polygon class="st1" points="10.7,18.1 10.7,18.8 11.4,18.8 			"/>
		</g>
	</g>
</g>
<g>
	<g>
		<g>
			<path class="st1" d="M15.2,14.6h-0.7c0,0-0.1,0-0.1-0.1v-0.8c0,0,0,0,0,0H13v3.2h2.2L15.2,14.6C15.2,14.6,15.2,14.6,15.2,14.6z
				 M14.8,16.3h-1.3c0,0,0,0,0,0s0,0,0,0L14.8,16.3C14.8,16.2,14.8,16.2,14.8,16.3C14.8,16.2,14.8,16.3,14.8,16.3z M14.8,15.8h-1.3
				c0,0,0,0,0,0s0,0,0,0L14.8,15.8C14.8,15.7,14.8,15.7,14.8,15.8C14.8,15.8,14.8,15.8,14.8,15.8z M14.8,15.4h-1.3c0,0,0,0,0,0
				s0,0,0,0L14.8,15.4C14.8,15.3,14.8,15.3,14.8,15.4C14.8,15.3,14.8,15.4,14.8,15.4z"/>
			<polygon class="st1" points="14.5,13.8 14.5,14.5 15.2,14.5 			"/>
		</g>
	</g>
</g>
<g>
	<g>
		<g>
			<path class="st1" d="M11.4,14.6h-0.7c0,0-0.1,0-0.1-0.1v-0.8c0,0,0,0,0,0H9.2V17h2.2L11.4,14.6C11.4,14.6,11.4,14.6,11.4,14.6z
				 M10.9,16.3H9.7c0,0,0,0,0,0s0,0,0,0L10.9,16.3C11,16.2,11,16.2,10.9,16.3C11,16.3,11,16.3,10.9,16.3z M10.9,15.9H9.7
				c0,0,0,0,0,0s0,0,0,0L10.9,15.9C11,15.8,11,15.8,10.9,15.9C11,15.8,11,15.9,10.9,15.9z M10.9,15.4H9.7c0,0,0,0,0,0s0,0,0,0
				L10.9,15.4C11,15.3,11,15.3,10.9,15.4C11,15.4,11,15.4,10.9,15.4z"/>
			<polygon class="st1" points="10.7,13.8 10.7,14.5 11.4,14.5 			"/>
		</g>
	</g>
</g>
<text transform="matrix(1 0 0 1 12.5444 32.9027)" class="st2 st6 st7">DMS</text>
</svg>
