<?xml version="1.0" encoding="utf-8"?>
<!-- Generator: Adobe Illustrator 26.0.2, SVG Export Plug-In . SVG Version: 6.00 Build 0)  -->
<svg version="1.1" id="Layer_1" xmlns="http://www.w3.org/2000/svg" xmlns:xlink="http://www.w3.org/1999/xlink" x="0px" y="0px"
	 viewBox="0 0 40 39.9" style="enable-background:new 0 0 40 39.9;" xml:space="preserve">
<style type="text/css">
	.st0{fill:#015182;}
	.st1{fill:#01BBD2;}
</style>
<path class="st0" d="M6,26c-0.9,0-1.6,0.7-1.6,1.6s0.7,1.6,1.6,1.6c0.9,0,1.6-0.7,1.6-1.6C7.7,26.7,6.9,26,6,26z"/>
<path class="st0" d="M12.5,26c-0.9,0-1.6,0.7-1.6,1.6c0,0.9,0.7,1.6,1.6,1.6c0.9,0,1.6-0.7,1.6-1.6C14.1,26.7,13.4,26,12.5,26z"/>
<path class="st1" d="M5.9,17.6L6,18.8H4.8l0.1,0.9H6L6.1,21h-1l0.1,0.9h1l0.1,1.4h0.9l-0.1-1.4h2.3v1.4h0.9v-1.4h2.3l-0.1,1.4h0.9
	l0.1-1.4h0.9l0.1-0.9h-1l0.1-1.3h1.1l0.1-0.9h-1.2l0.1-1.2H15l0.2-1.2H4.4l0.2,1.2H5.9z M6.8,17.6h2.6v1.2H6.9L6.8,17.6z M7,21
	l-0.1-1.3h2.4V21L7,21z M12.6,21h-2.3v-1.3h2.4L12.6,21z M12.7,18.8h-2.5v-1.2h2.6L12.7,18.8z"/>
<polygon class="st0" points="15.2,16.4 15,17.6 14.8,18.8 14.7,19.7 14.5,21 14.3,21.8 14.1,23.2 13.3,23.2 12.4,23.2 10.3,23.2 
	9.3,23.2 7.2,23.2 6.3,23.2 5.4,23.2 5.2,21.8 5.1,21 4.9,19.7 4.8,18.8 4.6,17.6 4.4,16.4 4,13.6 0,13.6 0,15.7 2.2,15.7 3.6,25.3 
	15.9,25.3 17.4,16.4 15.3,16.1 "/>
<path class="st1" d="M37.5,5.9h-0.5v1c0,0.4-0.2,0.7-0.6,0.9h1c0.2,0,0.3,0.1,0.4,0.3v29.7c0,0.2-0.2,0.3-0.4,0.3H21.1
	c-0.2,0-0.3-0.1-0.4-0.3V8.1c0-0.2,0.2-0.3,0.4-0.3h1.1c-0.3-0.2-0.6-0.5-0.6-0.9v-1h-0.5c-1.3-0.1-2.4,0.9-2.5,2.1v29.7
	c0.1,1.3,1.2,2.2,2.5,2.1h16.4c1.3,0.1,2.4-0.9,2.5-2.1V8.1C39.9,6.8,38.8,5.9,37.5,5.9z"/>
<polygon class="st0" points="26.8,11.6 26,10.9 23.9,12.7 23.1,12 22.3,12.7 23.9,14.1 "/>
<rect x="28.4" y="11.6" class="st0" width="7.8" height="1.7"/>
<polygon class="st0" points="24,17.6 23.1,16.9 22.3,17.6 24,19 26.9,16.5 26.1,15.8 "/>
<rect x="28.4" y="16.5" class="st0" width="7.8" height="1.7"/>
<path class="st0" d="M22.2,7.8C22.4,7.9,22.6,8,22.9,8h12.9c0.2,0,0.5-0.1,0.7-0.2c0.3-0.2,0.6-0.5,0.6-0.9V4.1
	C37,3.4,36.4,3,35.8,3h-2.9l-0.1-0.4C32.5,1,31-0.1,29.3,0c-1.7-0.1-3.2,1-3.5,2.6L25.8,3h-2.9c-0.6,0-1.2,0.4-1.3,1.1v2.9
	C21.7,7.3,21.9,7.6,22.2,7.8z M26.5,4.5c0.4,0,0.8-0.3,0.9-0.7l0.1-1.1c0.2-0.8,1-1.4,1.8-1.3C30.2,1.4,31,2,31.1,2.8l0.1,1.1
	c0.1,0.4,0.5,0.7,0.9,0.7h3.2v2H23.4v-2L26.5,4.5z"/>
<polygon class="st0" points="26.9,21 26.1,20.3 24,22.1 23.1,21.4 22.3,22.1 24,23.5 "/>
<rect x="28.5" y="21" class="st0" width="7.8" height="1.7"/>
<polygon class="st0" points="24,26.4 23.2,25.7 22.4,26.4 24,27.7 26.9,25.3 26.1,24.6 "/>
<rect x="28.5" y="25.3" class="st0" width="7.8" height="1.7"/>
<polygon class="st0" points="26.9,29.7 26.1,29 24,30.8 23.2,30.1 22.4,30.7 24,32.1 "/>
<rect x="28.5" y="29.6" class="st0" width="7.8" height="1.7"/>
<polygon class="st0" points="24,34.8 23.2,34.1 22.4,34.8 24,36.2 26.9,33.7 26.1,33 "/>
<rect x="28.5" y="33.7" class="st0" width="7.8" height="1.7"/>
</svg>
