<?xml version="1.0" encoding="utf-8"?>
<!-- Generator: Adobe Illustrator 26.0.2, SVG Export Plug-In . SVG Version: 6.00 Build 0)  -->
<svg version="1.1" id="Layer_1" xmlns="http://www.w3.org/2000/svg" xmlns:xlink="http://www.w3.org/1999/xlink" x="0px" y="0px"
	 viewBox="0 0 40 40" style="enable-background:new 0 0 40 40;" xml:space="preserve">
<style type="text/css">
	.st0{fill:#015182;}
	.st1{fill:#01BBD2;}
	.st2{display:none;fill:#FFFFFF;}
</style>
<g>
	<path class="st0" d="M13.6,18.6c5.1,0,9.3-4.1,9.3-9.3c0-5.1-4.1-9.3-9.3-9.3C8.5,0,4.3,4.1,4.3,9.3C4.4,14.4,8.5,18.6,13.6,18.6z"
		/>
	<path class="st0" d="M11.9,30.6l1.1-1.1l4.6-4.6l1.1-1.1l1.1,1.1l3.6,3.6l1.6-1.6c-2.5-3.9-6.6-6.5-11.2-6.5c-6.5,0-12,5-13.5,11.8
		c-0.4,1.9,1,3.8,3,3.8h14.3L13,31.6L11.9,30.6z"/>
	<polygon class="st1" points="23.3,30.6 18.6,26 14,30.6 23.3,39.9 39.9,23.3 35.3,18.7 	"/>
	<path class="st2" d="M40.9,22.3l-4.6-4.6l-1.1-1.1l-1.1,1.1L24.9,27l-1.6,1.6L19.7,25l-1.1-1.1L17.5,25L13,29.5l-1.1,1.1l1.1,1.1
		l4.5,4.5l4.8,4.8l1.1,1.1l1.1-1.1l16.6-16.6l1.1-1.1L40.9,22.3z M23.3,39.9L14,30.6l4.6-4.6l4.7,4.7l11.9-11.9l4.6,4.6L23.3,39.9z"
		/>
</g>
</svg>
