<svg id="Layer_1" data-name="Layer 1" xmlns="http://www.w3.org/2000/svg" viewBox="0 0 39.93457 39.93457"><defs><style>.cls-1{fill:#005282;}.cls-2{fill:#0cbbd2;}</style></defs><path class="cls-1" d="M20,.03223A19.96729,19.96729,0,1,0,39.9668,20,19.9904,19.9904,0,0,0,20,.03223Zm0,38.23535A18.26758,18.26758,0,1,1,38.26758,20,18.28861,18.28861,0,0,1,20,38.26758Z" transform="translate(-0.03223 -0.03223)"/><path class="cls-1" d="M15.71582,26.32812c.54346,0,.85645.26758.85645.74122a.75047.75047,0,0,1-.85645.78613h-.38574v.59863h-.54053v-2.126Zm-.38574,1.10254h.3584c.23681,0,.37353-.11816.37353-.34277,0-.22168-.13672-.334-.37353-.334h-.3584Z" transform="translate(-0.03223 -0.03223)"/><path class="cls-1" d="M18.52734,28.002v.45215H17.085v-2.126h.54053V28.002Z" transform="translate(-0.03223 -0.03223)"/><path class="cls-1" d="M19.50781,28.0625l-.15478.3916h-.55567l.917-2.126H20.27l.896,2.126h-.57715l-.15186-.3916Zm.46778-1.19629-.31006.78613h.61377Z" transform="translate(-0.03223 -0.03223)"/><path class="cls-1" d="M22.34961,26.7627v1.6914h-.54V26.7627H21.1748v-.4375h1.81543v.4375Z" transform="translate(-0.03223 -0.03223)"/><path class="cls-1" d="M23.99219,26.75391v.42187h1.01465v.42481H23.99219v.42871h1.15722v.4248H23.45215v-2.126h1.66406v.42579Z" transform="translate(-0.03223 -0.03223)"/><path class="cls-1" d="M8.96924,31.50391H8.544v.59863H8.00342v-2.126H8.9541c.56152,0,.8833.26758.8833.74121a.70884.70884,0,0,1-.38525.6836l.44629.70117H9.28516ZM8.9541,31.0791c.23389,0,.37012-.11816.37012-.34277,0-.22168-.13623-.334-.37012-.334H8.544v.67676Z" transform="translate(-0.03223 -0.03223)"/><path class="cls-1" d="M10.97314,30.40234v.42188H11.9873v.4248H10.97314v.42871h1.15723v.42481H10.43262v-2.126h1.66406v.42578Z" transform="translate(-0.03223 -0.03223)"/><path class="cls-1" d="M14.5625,30.31738l-.313.37012a.72769.72769,0,0,0-.53418-.27637.62179.62179,0,0,0,0,1.24219.79859.79859,0,0,0,.53418-.249l.31592.334a1.28507,1.28507,0,0,1-.87744.38867,1.08483,1.08483,0,1,1,.01806-2.168A1.23461,1.23461,0,0,1,14.5625,30.31738Z" transform="translate(-0.03223 -0.03223)"/><path class="cls-1" d="M17.16455,31.03711A1.15177,1.15177,0,1,1,16.01367,29.959,1.09675,1.09675,0,0,1,17.16455,31.03711ZM15.41846,31.04a.61831.61831,0,0,0,.60107.63476.63262.63262,0,1,0-.60107-.63476Z" transform="translate(-0.03223 -0.03223)"/><path class="cls-1" d="M19.521,31.02148v.82911a1.67052,1.67052,0,0,1-.88379.27636A1.08831,1.08831,0,0,1,17.50146,31.04,1.10291,1.10291,0,0,1,18.67383,29.959a1.35867,1.35867,0,0,1,.86816.31543l-.30371.36719a.872.872,0,0,0-.56787-.23047.632.632,0,0,0,.00635,1.26367.90741.90741,0,0,0,.37646-.10351v-.54981Z" transform="translate(-0.03223 -0.03223)"/><path class="cls-1" d="M21.61328,32.10254,20.63574,30.794v1.30859h-.50732v-2.126h.47705l.98047,1.3125v-1.3125h.5039v2.126Z" transform="translate(-0.03223 -0.03223)"/><path class="cls-1" d="M22.74609,32.10254v-2.126h.54v2.126Z" transform="translate(-0.03223 -0.03223)"/><path class="cls-1" d="M24.9248,30.41113v1.69141h-.54V30.41113H23.75v-.4375h1.81543v.4375Z" transform="translate(-0.03223 -0.03223)"/><path class="cls-1" d="M26.02734,32.10254v-2.126h.54v2.126Z" transform="translate(-0.03223 -0.03223)"/><path class="cls-1" d="M29.37988,31.03711A1.15125,1.15125,0,1,1,28.22949,29.959,1.096,1.096,0,0,1,29.37988,31.03711ZM27.63477,31.04a.6176.6176,0,0,0,.60058.63476.63265.63265,0,1,0-.60058-.63476Z" transform="translate(-0.03223 -0.03223)"/><path class="cls-1" d="M31.38184,32.10254,30.4043,30.794v1.30859h-.50684v-2.126H30.374l.98047,1.3125v-1.3125h.50391v2.126Z" transform="translate(-0.03223 -0.03223)"/><path class="cls-1" d="M27.98151,13.66852,25.92316,8.87073a.7403.7403,0,0,0-.68116-.459H14.87653a.7403.7403,0,0,0-.65149.41455l-2.08789,4.8274a2.22117,2.22117,0,0,0-1.70288,2.16192v5.18274H11.915v1.48078a1.48075,1.48075,0,1,0,2.96149,0V20.99835H25.242v1.48078a1.48078,1.48078,0,0,0,2.96155,0V20.99835h1.48084V15.81561A2.22133,2.22133,0,0,0,27.98151,13.66852ZM13.39575,18.77716a1.48078,1.48078,0,1,1,1.48078-1.48077A1.48068,1.48068,0,0,1,13.39575,18.77716ZM23.131,19.454H16.86157V17.2514H23.131Zm-6.20666-2.53442v-.95319h6.191v.95319ZM13.766,13.59448l1.55481-3.702h9.477l1.55481,3.702Zm12.95679,5.18268a1.48078,1.48078,0,1,1,1.48077-1.48077A1.48074,1.48074,0,0,1,26.72278,18.77716Z" transform="translate(-0.03223 -0.03223)"/><path class="cls-1" d="M19.0611,18.17413c0-.052-.038-.08166-.09784-.08166h-.16651v.166h.16651C19.02313,18.25842,19.0611,18.2262,19.0611,18.17413Z" transform="translate(-0.03223 -0.03223)"/><path class="cls-1" d="M22.92072,17.46173H17.07184v1.78192h5.84888Zm-4.6886,1.28174-.0578-.1488H17.821l-.05883.1488H17.5509l.34864-.80817h.2113l.34088.80817Zm.7561,0h-.396V17.9353h.38251c.18109,0,.29663.07855.29663.20191a.18145.18145,0,0,1-.13843.178.19931.19931,0,0,1,.166.20452C19.299,18.6571,19.17871,18.74347,18.98822,18.74347Zm.8681.0094a.4125.4125,0,1,1,.00672-.82434.47137.47137,0,0,1,.3258.1358l-.1192.141a.2768.2768,0,0,0-.20294-.10516.23653.23653,0,0,0,0,.47253.30245.30245,0,0,0,.20294-.09466l.12024.12695A.48745.48745,0,0,1,19.85632,18.75287Zm1.11158-.0094h-.20557v-.64429h-.14887v-.16491h.35444Zm.83422,0h-.60473v-.13269l.28833-.306a.24706.24706,0,0,0,.077-.13843c0-.04632-.03332-.07385-.09057-.07385a.36865.36865,0,0,0-.22064.10248l-.07807-.14777a.55246.55246,0,0,1,.32788-.12128c.16132,0,.27686.08326.27686.21131a.43535.43535,0,0,1-.153.269l-.16339.17432h.34033Zm.40381.0094a.50842.50842,0,0,1-.30078-.09839l.08325-.15558a.27374.27374,0,0,0,.202.09784c.08014,0,.12488-.03906.12488-.10516,0-.06818-.04578-.10144-.126-.10144H22.0592v-.10981l.1811-.18682h-.29456v-.15717h.5329v.11658l-.20191.2102.03852.00574a.217.217,0,0,1,.20086.22064A.27412.27412,0,0,1,22.20593,18.75287Z" transform="translate(-0.03223 -0.03223)"/><polygon class="cls-1" points="17.849 18.406 18.082 18.406 17.967 18.108 17.849 18.406"/><path class="cls-1" d="M18.96326,18.40625h-.16651v.179h.16651c.076,0,.12335-.03333.12335-.09107C19.08661,18.43958,19.03925,18.40625,18.96326,18.40625Z" transform="translate(-0.03223 -0.03223)"/><path class="cls-2" d="M17.73409,14.95351a3.957,3.957,0,0,0-.51013.48981c-.05909.06913-.13184.1596-.16464.20437A3.76221,3.76221,0,0,0,16.605,16.44a4.33153,4.33153,0,0,0-.15226.43169,3.9786,3.9786,0,0,0-.13736.7775,3.80808,3.80808,0,0,0,.09364,1.15,3.75447,3.75447,0,0,0,.5068,1.1795c.044.06853.19736.27762.24783.3379a3.77568,3.77568,0,0,0,1.927,1.24168,3.90115,3.90115,0,0,0,.89547.13094,3.78687,3.78687,0,0,0,1.6003-.30865,3.74274,3.74274,0,0,0,.50637-.26745l.02722-.01723.158.21544.1582.2157-.06554.04808a.50886.50886,0,0,0-.07774.06288.20057.20057,0,0,0-.0359.18653c.00786.0251.00842.02586.06784.10848.03285.04585.75141,1.02822,1.59643,2.18354,1.3452,1.83836,1.53881,2.10233,1.55348,2.11541a.23223.23223,0,0,0,.08635.04528.21106.21106,0,0,0,.08356.00046c.04483-.00866.03277-.0006.38257-.25833l.31879-.235.01218-.01909a.19886.19886,0,0,0,.03186-.08549.19183.19183,0,0,0-.00584-.0852l-.00594-.02142-.29823-.41035c-.16434-.22566-.88663-1.21311-1.60557-2.19441l-1.30709-1.78426-.01814-.01249a.20136.20136,0,0,0-.17408-.02744c-.02288.00662-.02536.00805-.095.058l-.07163.051-.015-.02417c-.00856-.01326-.079-.11087-.15649-.21656l-.14087-.19207.043-.03622c.04966-.0415.1084-.09513.1794-.164.04871-.04706.06209-.06078.1273-.13009a3.77508,3.77508,0,0,0,.50065-.67588c.034-.05812.1132-.20845.13757-.25993.02844-.06032.03734-.08014.054-.11815a3.80152,3.80152,0,0,0,.20339-2.45722,3.75563,3.75563,0,0,0-.43835-1.03824,3.89371,3.89371,0,0,0-.37107-.5054,3.76225,3.76225,0,0,0-1.86059-1.16339,3.81552,3.81552,0,0,0-1.34407-.11607,3.75305,3.75305,0,0,0-1.05175.25212c-.078.03061-.20373.08769-.29294.1328-.05911.02968-.08713.04476-.177.09427A4.3636,4.3636,0,0,0,17.73409,14.95351Zm.86922.58313a2.79909,2.79909,0,0,1,1.82338-.4035c.06545.00826.06923.00861.1403.02135a2.724,2.724,0,0,1,.47857.12881,2.78371,2.78371,0,0,1,1.13247.77531,3.25392,3.25392,0,0,1,.27358.36395,2.79205,2.79205,0,0,1-.583,3.64875c-.05086.042-.21251.16094-.2615.19218-.07823.05-.15738.09707-.2096.12443l-.05513.02871a2.85372,2.85372,0,0,1-.705.24549,2.69939,2.69939,0,0,1-.4108.052,2.791,2.791,0,0,1-2.12941-.82244,2.40527,2.40527,0,0,1-.27256-.32368,2.32484,2.32484,0,0,1-.219-.34383,2.78753,2.78753,0,0,1,.67417-3.45191l.05964-.04921C18.37419,15.69413,18.5542,15.56718,18.60331,15.53664Z" transform="translate(-0.03223 -0.03223)"/></svg>