<?xml version="1.0" encoding="utf-8"?>
<!-- Generator: Adobe Illustrator 26.0.2, SVG Export Plug-In . SVG Version: 6.00 Build 0)  -->
<svg version="1.1" id="Layer_1" xmlns="http://www.w3.org/2000/svg" xmlns:xlink="http://www.w3.org/1999/xlink" x="0px" y="0px"
	 viewBox="0 0 40 40" style="enable-background:new 0 0 40 40;" xml:space="preserve">
<style type="text/css">
	.st0{fill:#EFEFEF;}
	.st1{fill:#CECECE;}
	.st2{display:none;fill:#FFFFFF;}
	.st3{fill:#01BBD2;}
	.st4{fill:#015182;}
	.st5{fill:none;}
</style>
<g>
	<polygon class="st0" points="15,37.8 25.1,37.8 24.7,32.5 15.4,32.5 	"/>
	<polygon class="st1" points="15.5,31 15.4,32.5 15.4,32.5 24.7,32.5 24.7,32.5 24.5,31 	"/>
	<path class="st0" d="M0.1,29c0,1.1,0.8,2,1.8,2h13.6h9h13.6c1,0,1.8-0.9,1.8-2v-2.7H0.1V29z"/>
	<path d="M40,2L40,2c-0.1-1.1-1-2-2.1-2H2.2c-1.1,0-1.9,0.9-2,2l0,0v24.4l0,0H40l0,0V2z M1.7,24.3V2h36.7v22.3H1.7z"/>
	<path class="st2" d="M7.3,20.3h9.2c0.4,0,0.7-0.3,0.7-0.7V4.9c0-0.4-0.3-0.7-0.7-0.7H7.3c-0.4,0-0.7,0.3-0.7,0.7v14.7
		C6.6,20,6.9,20.3,7.3,20.3z M15.8,16H8.3v-1h7.5V16z M15.8,13.9H8.3V13h7.5V13.9z M10.2,6.6h5.6v0.9h-5.6
		C10.2,7.5,10.2,6.6,10.2,6.6z M8.3,8.9h7.5v0.9H8.3V8.9z M15.8,11v0.9H8.3V11H15.8z"/>
	<path class="st2" d="M38.4,2H1.7v22.3h36.7V2z M30.5,19.8h-2.6v-8.7h2.6V19.8z M5.6,4.9c0-0.9,0.8-1.7,1.7-1.7h9.2
		c0.9,0,1.7,0.8,1.7,1.7v14.7c0,0.9-0.8,1.7-1.7,1.7H7.3c-0.9,0-1.7-0.8-1.7-1.7C5.6,19.6,5.6,4.9,5.6,4.9z M21.8,19.8v-6.3h2.6v6.3
		H21.8z M29.3,9.6c0,0-0.1,0-0.2,0l-2.7-0.4L20.5,13c-0.1,0-0.2,0-0.2,0s-0.1-0.1-0.1-0.2l0,0l0,0c0-0.1,0.1-0.1,0.1-0.2l0,0l6-3.8
		c0,0,0.1,0,0.2,0l2.7,0.4l6.3-4.4L35,4.2l1.2,0.2C36.1,4.8,36,5.2,36,5.6l-0.4-0.5L29.3,9.6z M32.8,19.8v-10h2.6v10.1h-2.6V19.8z"
		/>
	<path class="st1" d="M12.2,37.8c-0.2,0-0.3,0.3-0.3,0.6v0.9c0,0.4,0.1,0.6,0.3,0.6h15.6c0.2,0,0.3-0.3,0.3-0.6v-0.9
		c0-0.4-0.1-0.6-0.3-0.6H25H15H12.2z"/>
	<path class="st3" d="M7.3,21.3h9.2c0.9,0,1.7-0.8,1.7-1.7V4.9c0-0.9-0.8-1.7-1.7-1.7H7.3c-1,0-1.7,0.8-1.7,1.7v14.7
		C5.6,20.5,6.3,21.3,7.3,21.3z M6.6,4.9c0-0.4,0.3-0.7,0.7-0.7h9.2c0.4,0,0.7,0.3,0.7,0.7v14.7c0,0.4-0.3,0.7-0.7,0.7H7.3
		c-0.4,0-0.7-0.3-0.7-0.7C6.6,19.6,6.6,4.9,6.6,4.9z"/>
	<rect x="10.2" y="6.6" class="st4" width="5.6" height="0.9"/>
	<rect x="8.3" y="11" class="st4" width="7.5" height="0.9"/>
	<rect x="8.3" y="8.9" class="st4" width="7.5" height="0.9"/>
	<rect x="8.3" y="15" class="st4" width="7.5" height="0.9"/>
	<rect x="8.3" y="13" class="st4" width="7.5" height="0.9"/>
	<rect x="21.8" y="13.5" class="st4" width="2.6" height="6.3"/>
	<rect x="27.9" y="11.1" class="st4" width="2.6" height="8.7"/>
	<rect x="32.8" y="9.8" class="st4" width="2.6" height="10.1"/>
	<line class="st5" x1="20.2" y1="12.8" x2="20.2" y2="12.8"/>
	<path class="st4" d="M36,5.6c0.1-0.4,0.2-0.8,0.2-1.2L35,4.2l0.4,0.5l-6.3,4.4l-2.7-0.4c-0.1,0-0.1,0-0.2,0l-6,3.8l0,0
		c-0.1,0-0.1,0.1-0.1,0.2c0,0.1,0,0.2,0.1,0.2s0.2,0,0.2,0l5.9-3.8L29,9.5c0.1,0,0.1,0,0.2,0L35.5,5L36,5.6z"/>
</g>
</svg>
